<?xml version="1.0" encoding="UTF-8" standalone="no"?>
<svg
   xmlns:dc="http://purl.org/dc/elements/1.1/"
   xmlns:cc="http://creativecommons.org/ns#"
   xmlns:rdf="http://www.w3.org/1999/02/22-rdf-syntax-ns#"
   xmlns:svg="http://www.w3.org/2000/svg"
   xmlns="http://www.w3.org/2000/svg"
   xmlns:sodipodi="http://sodipodi.sourceforge.net/DTD/sodipodi-0.dtd"
   xmlns:inkscape="http://www.inkscape.org/namespaces/inkscape"
   id="Layer_1"
   data-name="Layer 1"
   viewBox="0 0 563.90996 118.49252"
   version="1.1"
   sodipodi:docname="logo.svg"
   width="563.90997"
   height="118.49252"
   inkscape:version="1.0.1 (3bc2e813f5, 2020-09-07)">
  <style></style>
  <metadata
     id="metadata102">
    <rdf:RDF>
      <cc:Work
         rdf:about="">
        <dc:format>image/svg+xml</dc:format>
        <dc:type
           rdf:resource="http://purl.org/dc/dcmitype/StillImage" />
        <dc:title></dc:title>
      </cc:Work>
    </rdf:RDF>
  </metadata>
  <sodipodi:namedview
     pagecolor="#ffffff"
     bordercolor="#666666"
     borderopacity="1"
     objecttolerance="10"
     gridtolerance="10"
     guidetolerance="10"
     inkscape:pageopacity="0"
     inkscape:pageshadow="2"
     inkscape:window-width="2560"
     inkscape:window-height="1403"
     id="namedview100"
     showgrid="false"
     inkscape:zoom="0.34940561"
     inkscape:cx="11.904897"
     inkscape:cy="-74.400924"
     inkscape:window-x="1600"
     inkscape:window-y="0"
     inkscape:window-maximized="1"
     inkscape:current-layer="Layer_1" />
  <defs
     id="defs78">
    <style
       id="style76">.cls-1{isolation:isolate;}.cls-2{fill:#1b1d27;}.cls-3{fill:#4f86d9;}</style>
  </defs>
  <g
     id="polygon"
     class="cls-1"
     transform="translate(-110.15,-85.36)">
    <g
       class="cls-1"
       id="g94">
      <path
         class="cls-2"
         d="m 147.13,107.93 q 15.3,0 25.39,10.15 10.09,10.15 10.1,25.58 0,15.42 -10.16,25.64 -10.16,10.22 -25.33,10.22 a 32.42,32.42 0 0 1 -18.68,-5.64 V 202 h -18.3 v -92.19 h 12.16 l 3.13,6.14 a 31.53,31.53 0 0 1 21.69,-8.02 z M 132.4,157 a 17.75,17.75 0 0 0 13.17,5.27 18,18 0 0 0 18.49,-18.56 19.18,19.18 0 0 0 -2.38,-9.53 17.07,17.07 0 0 0 -6.58,-6.64 18.88,18.88 0 0 0 -9.47,-2.39 19.18,19.18 0 0 0 -9.53,2.39 16.49,16.49 0 0 0 -6.58,6.64 19.57,19.57 0 0 0 -2.32,9.53 18.12,18.12 0 0 0 5.2,13.29 z"
         id="path80" />
      <path
         class="cls-2"
         d="M 227.88,179.39 A 38.17,38.17 0 0 1 209.07,174.75 33.31,33.31 0 0 1 196,161.9 36,36 0 0 1 191.3,143.66 q 0,-15.42 10.4,-25.58 10.4,-10.16 26.21,-10.15 15.68,0 26.08,10.15 10.4,10.15 10.4,25.58 0,15.3 -10.47,25.52 -10.47,10.22 -26.04,10.21 z m 0,-17.17 A 17.14,17.14 0 0 0 240.79,157 q 5,-5.19 5,-13.35 a 18.46,18.46 0 0 0 -5,-13.35 18.76,18.76 0 0 0 -25.95,0 q -5,5.2 -5,13.35 a 21.16,21.16 0 0 0 1.32,7.52 16.34,16.34 0 0 0 3.7,5.9 17.58,17.58 0 0 0 5.7,3.76 19,19 0 0 0 7.32,1.39 z"
         id="path82" />
      <path
         class="cls-2"
         d="M 277.53,177.51 V 85.36 h 18.3 v 92.15 z"
         id="path84" />
      <path
         class="cls-2"
         d="m 360.15,109.81 h 19.56 l -29.59,66.83 q -6.27,14 -12.79,19.68 -6.52,5.68 -17.67,5.68 h -7.53 v -16.59 h 6.4 c 4.34,0 7.44,-0.79 9.28,-2.38 1.84,-1.59 3.84,-5 6,-10.16 l 0.25,-0.5 -28.71,-62.56 h 19.95 l 18.05,41.62 z"
         id="path86" />
      <path
         class="cls-2"
         d="m 441,109.81 h 11.91 v 59.8 a 37.59,37.59 0 0 1 -4.2,18.25 28.73,28.73 0 0 1 -12,11.85 38.8,38.8 0 0 1 -18.43,4.13 q -13.8,0 -23,-6.64 A 28.25,28.25 0 0 1 383.85,179 H 402 a 12.17,12.17 0 0 0 6,6.71 20.45,20.45 0 0 0 9.9,2.44 17.43,17.43 0 0 0 12.1,-4.33 q 4.83,-4.32 4.83,-11.59 v -2.51 a 32.33,32.33 0 0 1 -19.31,6 33.66,33.66 0 0 1 -17.05,-4.45 31.89,31.89 0 0 1 -12.16,-12.23 34.28,34.28 0 0 1 -4.31,-17.13 33.11,33.11 0 0 1 9.72,-24.08 33.76,33.76 0 0 1 46.45,-1.25 z m -23.3,49.65 a 16.72,16.72 0 0 0 12.42,-5 18.61,18.61 0 0 0 0.06,-25.08 18,18 0 0 0 -24.76,0 17,17 0 0 0 -4.89,12.48 17.32,17.32 0 0 0 4.82,12.6 16.51,16.51 0 0 0 12.35,5 z"
         id="path88" />
      <path
         class="cls-2"
         d="m 502.71,179.39 a 38.17,38.17 0 0 1 -18.81,-4.64 33.31,33.31 0 0 1 -13.1,-12.85 36.07,36.07 0 0 1 -4.7,-18.24 q 0,-15.42 10.4,-25.58 10.4,-10.16 26.21,-10.15 15.68,0 26.08,10.15 10.4,10.15 10.4,25.58 0,15.3 -10.47,25.52 -10.47,10.22 -26.01,10.21 z m 0,-17.17 A 17.14,17.14 0 0 0 515.62,157 q 5,-5.19 5,-13.35 a 18.46,18.46 0 0 0 -5,-13.35 18.76,18.76 0 0 0 -25.95,0 18.46,18.46 0 0 0 -5,13.35 21.16,21.16 0 0 0 1.32,7.52 16.34,16.34 0 0 0 3.7,5.9 17.58,17.58 0 0 0 5.7,3.76 19,19 0 0 0 7.32,1.39 z"
         id="path90" />
      <path
         class="cls-2"
         d="m 591,108.18 q 11.53,0 18.24,7.71 6.71,7.71 6.71,20.62 v 41 H 597.62 V 139.4 q 0,-15.17 -11.78,-15.17 a 15.07,15.07 0 0 0 -8.09,2.13 13.6,13.6 0 0 0 -5.27,6.14 22.67,22.67 0 0 0 -1.81,9.41 v 35.6 h -18.31 v -67.7 h 12.54 l 3.63,8.4 a 23,23 0 0 1 4.33,-4.2 29.3,29.3 0 0 1 5.33,-3.14 30.09,30.09 0 0 1 6.08,-2 31.74,31.74 0 0 1 6.73,-0.69 z"
         id="path92" />
    </g>
  </g>
  <rect
     class="cls-3"
     x="529.02997"
     y="57.449997"
     width="34.880001"
     height="34.880001"
     rx="4.8400002"
     id="rect97" />
</svg>
