<svg xmlns="http://www.w3.org/2000/svg" width="450.825" height="335.101" viewBox="0 0 450.825 335.101">
    <defs>
        <style>
            .cls-2{fill:#3c3d49}.cls-4{fill:#4f86d9}.cls-5{fill:#c7d7f0}.cls-7{opacity:.1}
        </style>
    </defs>
    <g id="Group_4000" transform="translate(-1155 -2689)">
        <g id="Group_3972" transform="translate(1337.652 2689)">
            <g id="TEST" transform="translate(10.937 66.139)">
                <path id="Path_2579" fill="#93b4e6" d="M3706.531-890.4c-1.9-1.353 13.643-55.631 15.352-57 1.638-1.314 49.144-2.67 50.382-1.449 1.674 1.652 21.567 56.177 19.423 57.7-1.88 1.333-83.136 2.187-85.157.749z" transform="translate(-3706.369 949.327)"/>
            </g>
            <g id="Layer_1">
                <path id="Path_2580" d="M3770.154-909.007c.161.512 0 36.647 0 36.647l3.541 3.072h-12.555l.323-41.085z" class="cls-2" transform="translate(-3704.102 1009.3)"/>
                <path id="Path_2581" d="M3739.051-909.007c-.161.512 0 36.647 0 36.647l-3.541 3.072h12.555l-.322-41.085z" class="cls-2" transform="translate(-3700.045 1009.3)"/>
                <rect id="Rectangle_1451" width="107.354" height="107.354" fill="#719de0" rx="10"/>
                <path id="Path_2582" d="M3714.362-954.266c-1.6-.568-1.441-23.794 0-24.372 1.381-.552 70.748-1.4 71.79-.891 1.411.694 1.417 23.613-.39 24.252-1.585.562-69.695 1.616-71.4 1.011z" class="cls-4" transform="translate(-3696.516 1020.271)"/>
                <circle id="Ellipse_1452" cx="8.37" cy="8.37" r="8.37" class="cls-2" transform="translate(27.494 45.016)"/>
                <circle id="Ellipse_1453" cx="8.37" cy="8.37" r="8.37" class="cls-2" transform="translate(63.121 45.016)"/>
                <g id="Group_3971" transform="translate(44.841 66.372)">
                    <path id="Path_2583" d="M3755.486-941.271a11.387 11.387 0 0 1-8.075-3.337 2.6 2.6 0 0 1 0-3.68 2.6 2.6 0 0 1 3.68 0 6.222 6.222 0 0 0 8.789 0 2.6 2.6 0 0 1 3.68 0 2.6 2.6 0 0 1 0 3.68 11.384 11.384 0 0 1-8.074 3.337z" class="cls-2" transform="translate(-3746.649 949.05)"/>
                </g>
            </g>
        </g>
        <g id="Group_3975" transform="translate(1390.916 2927.822)">
            <path id="Path_2535" d="M6356.388-2076.958c.161.512 0 36.648 0 36.648l3.541 3.072h-12.554l.321-41.085z" class="cls-4" transform="translate(-6347.375 2078.323)"/>
        </g>
        <g id="Group_3976" transform="translate(1369.343 2927.822)">
            <path id="Path_2536" d="M6325.286-2076.958c-.162.512 0 36.648 0 36.648l-3.542 3.072h12.556l-.323-41.085z" class="cls-4" transform="translate(-6321.744 2078.323)"/>
        </g>
        <g id="Group_3977" transform="translate(1333.877 2829.301)">
            <rect id="Rectangle_1402" width="107.354" height="107.354" class="cls-5" rx="10"/>
        </g>
        <g id="Group_3978" transform="translate(1361.372 2861.047)">
            <g id="Group_3750">
                <circle id="Ellipse_1423" cx="8.37" cy="8.37" r="8.37" class="cls-4"/>
            </g>
            <g id="Group_3751" transform="translate(35.627)">
                <circle id="Ellipse_1424" cx="8.37" cy="8.37" r="8.37" class="cls-4"/>
            </g>
            <g id="Group_3752" transform="translate(17.348 21.355)">
                <path id="Path_2537" d="M6341.72-2124.5a11.386 11.386 0 0 1-8.074-3.339 2.6 2.6 0 0 1 0-3.679 2.6 2.6 0 0 1 3.68 0 6.221 6.221 0 0 0 8.788 0 2.6 2.6 0 0 1 3.679 0 2.6 2.6 0 0 1 0 3.679 11.384 11.384 0 0 1-8.073 3.339z" class="cls-4" transform="translate(-6332.884 2132.283)"/>
            </g>
        </g>
        <g id="Group_3979" transform="translate(1228.259 2970.001)">
            <path id="Path_2541" d="M6163.144-1976.847c.162.512 0 36.647 0 36.647l3.541 3.072h-12.555l.321-41.085z" class="cls-4" transform="translate(-6154.13 1978.212)"/>
        </g>
        <g id="Group_3980" transform="translate(1206.687 2970.001)">
            <path id="Path_2542" d="M6132.042-1976.847c-.162.512 0 36.647 0 36.647l-3.542 3.072h12.554l-.321-41.085z" class="cls-4" transform="translate(-6128.5 1978.212)"/>
        </g>
        <g id="Path_340" transform="translate(1155 2857.358)">
            <path id="Path_2543" fill="#a4c0e9" d="M6122.521-2110.749l-53.648 46.934a5.209 5.209 0 0 0-1.358 5.971l28.061 65.526a5.207 5.207 0 0 0 5.253 3.138l70.988-6.437a5.208 5.208 0 0 0 4.6-4.032l15.816-69.5a5.21 5.21 0 0 0-2.4-5.63l-61.213-36.521a5.207 5.207 0 0 0-6.099.551z" transform="translate(-6067.094 2112.038)"/>
        </g>
        <g id="Group_3981" transform="translate(1203.76 2902.74)">
            <g id="Group_3763" transform="translate(35.627)">
                <circle id="Ellipse_1427" cx="8.37" cy="8.37" r="8.37" class="cls-4"/>
            </g>
            <g id="Group_3764">
                <circle id="Ellipse_1428" cx="8.37" cy="8.37" r="8.37" class="cls-4"/>
            </g>
            <g id="Group_3765" transform="translate(15.772 18.95)">
                <path id="Path_2544" d="M6153.446-2026.868a11.524 11.524 0 0 1-1.651-.12 11.338 11.338 0 0 1-7.514-4.46 2.6 2.6 0 0 1 .524-3.642 2.6 2.6 0 0 1 3.643.524 6.163 6.163 0 0 0 4.089 2.427 6.166 6.166 0 0 0 4.61-1.175 2.6 2.6 0 0 1 3.642.524 2.6 2.6 0 0 1-.523 3.642 11.336 11.336 0 0 1-6.82 2.28z" class="cls-4" transform="translate(-6143.761 2035.608)"/>
            </g>
        </g>
        <g id="Group_3982" class="cls-7" transform="translate(1338.678 2955.661)">
            <g id="Group_3767">
                <ellipse id="Ellipse_1429" cx="48.876" cy="13.015" class="cls-4" rx="48.876" ry="13.015"/>
            </g>
        </g>
        <g id="Group_3983" class="cls-7" transform="translate(1175.783 2998.07)">
            <g id="Group_3769">
                <ellipse id="Ellipse_1430" cx="48.876" cy="13.015" class="cls-4" rx="48.876" ry="13.015"/>
            </g>
        </g>
        <g id="Group_3984" class="cls-7" transform="translate(1498.777 2998.07)">
            <g id="Group_3771">
                <ellipse id="Ellipse_1431" cx="48.876" cy="13.015" class="cls-4" rx="48.876" ry="13.015"/>
            </g>
        </g>
        <g id="Group_3987" transform="translate(1551.922 2968.73)">
            <path id="Path_2547" d="M6547.671-1978.356c.161.512 0 36.647 0 36.647l3.542 3.072h-12.556l.322-41.085z" class="cls-4" transform="translate(-6538.657 1979.721)"/>
        </g>
        <g id="Group_3988" transform="translate(1530.348 2968.73)">
            <path id="Path_2548" d="M6516.568-1978.356c-.161.512 0 36.647 0 36.647l-3.542 3.072h12.556l-.322-41.085z" class="cls-4" transform="translate(-6513.026 1979.721)"/>
        </g>
        <g id="Path_247" transform="translate(1483.575 2869.492)">
            <g id="Group_3780">
                <path id="Path_2549" d="M6517.934-2094.11a7.871 7.871 0 0 1 10.913-2.193 7.875 7.875 0 0 1 2.694 3.064l23.675 47.821 23.675 47.82a7.872 7.872 0 0 1-3.562 10.546 7.868 7.868 0 0 1-4 .8l-106.5-6.821a7.871 7.871 0 0 1-7.353-8.358 7.867 7.867 0 0 1 1.3-3.86l29.58-44.411z" class="cls-5" transform="translate(-6457.458 2097.622)"/>
            </g>
        </g>
        <g id="Group_3989" transform="translate(1520.808 2919.155)">
            <g id="Group_3782">
                <g id="Group_3781">
                    <circle id="Ellipse_1434" cx="8.37" cy="8.37" r="8.37" class="cls-4"/>
                </g>
            </g>
            <g id="Group_3784" transform="translate(31.418)">
                <g id="Group_3783">
                    <circle id="Ellipse_1435" cx="8.37" cy="8.37" r="8.37" class="cls-4"/>
                </g>
            </g>
        </g>
        <g id="Group_3990" transform="translate(1536.433 2937.169)">
            <g id="Group_3786">
                <path id="Path_2550" d="M6527.61-2007.968a11.337 11.337 0 0 1-6.161-1.824 2.6 2.6 0 0 1-.778-3.6 2.6 2.6 0 0 1 3.6-.778 6.168 6.168 0 0 0 4.679.851 6.184 6.184 0 0 0 3.911-2.709 2.6 2.6 0 0 1 3.595-.779 2.6 2.6 0 0 1 .778 3.6 11.339 11.339 0 0 1-7.184 4.977 11.494 11.494 0 0 1-2.44.262z" class="cls-4" transform="translate(-6520.256 2017.218)"/>
            </g>
        </g>
    </g>
</svg>
