<svg xmlns="http://www.w3.org/2000/svg" width="390.163" height="93.961" viewBox="0 0 390.163 93.961">
    <defs>
        <style>
            .cls-1{fill:#4f86d9}.cls-2{opacity:.1;isolation:isolate}.cls-5{fill:#3c3d49}.cls-6{fill:#719de0}
        </style>
    </defs>
    <g id="Group_4154" transform="translate(14.267 -505.316)">
        <g id="Group_3991" transform="translate(-14.267 505.316)">
            <g id="Path_644" transform="translate(39.096 64.253)">
                <path id="Path_2501" d="M-3135.766-8731.708c.094.3 0 21.4 0 21.4l2.068 1.8h-7.332l.188-23.994z" class="cls-1" transform="translate(3141.03 8732.503)"/>
            </g>
            <g id="Path_645" transform="translate(26.496 64.253)">
                <path id="Path_2502" d="M-3155.538-8731.708c-.093.3 0 21.4 0 21.4l-2.067 1.8h7.333l-.189-23.994z" class="cls-1" transform="translate(3157.605 8732.503)"/>
            </g>
            <g id="Ellipse_234" class="cls-2" transform="translate(14.738 82.048)">
                <ellipse id="Ellipse_1396" cx="22.37" cy="5.957" class="cls-1" rx="22.37" ry="5.957"/>
            </g>
            <g id="Path_646">
                <path id="Path_2503" fill="#93b4e6" d="M-3158.708-8816.369l-32.6 25.85a3.042 3.042 0 0 0-.96 3.443l14.513 39a3.038 3.038 0 0 0 2.978 1.978l41.57-1.749a3.039 3.039 0 0 0 2.8-2.221l11.182-40.083a3.04 3.04 0 0 0-1.247-3.35l-34.664-23.021a3.046 3.046 0 0 0-3.572.153z" transform="translate(3192.461 8817.027)"/>
            </g>
            <g id="Ellipse_235" transform="translate(25.481 34.79)">
                <circle id="Ellipse_1397" cx="4.889" cy="4.889" r="4.889" class="cls-1"/>
            </g>
            <g id="Ellipse_236" transform="translate(46.289 34.79)">
                <circle id="Ellipse_1398" cx="4.889" cy="4.889" r="4.889" class="cls-1"/>
            </g>
            <g id="Path_647" transform="translate(34.775 45.742)">
                <path id="Path_2504" d="M-3140.613-8751.035a6.7 6.7 0 0 1-2.026-.313 6.624 6.624 0 0 1-3.9-3.287 1.518 1.518 0 0 1 .651-2.047 1.519 1.519 0 0 1 2.048.647 3.61 3.61 0 0 0 2.124 1.791 3.607 3.607 0 0 0 2.768-.238 1.517 1.517 0 0 1 2.048.652 1.518 1.518 0 0 1-.65 2.048 6.661 6.661 0 0 1-3.063.747z" class="cls-1" transform="translate(3146.712 8756.854)"/>
            </g>
        </g>
        <g id="Group_3994" transform="translate(310.609 507.156)">
            <g id="Path_653" transform="translate(34.607 59.074)">
                <path id="Path_2510" d="M-2654.209-8736.1c.094.3 0 21.4 0 21.4l2.067 1.8h-7.333l.189-23.994z" class="cls-1" transform="translate(2659.475 8736.896)"/>
            </g>
            <g id="Path_654" transform="translate(22.007 59.074)">
                <path id="Path_2511" d="M-2673.981-8736.1c-.094.3 0 21.4 0 21.4l-2.069 1.8h7.332l-.187-23.994z" class="cls-1" transform="translate(2676.05 8736.896)"/>
            </g>
            <g id="Rectangle_382">
                <rect id="Rectangle_1400" width="62.702" height="62.702" fill="#c7d7f0" rx="6.467" transform="rotate(-2.56 62.845 1.496)"/>
            </g>
            <g id="Ellipse_244" transform="translate(12.31 27.585)">
                <circle id="Ellipse_1406" cx="4.889" cy="4.889" r="4.889" class="cls-1"/>
            </g>
            <g id="Ellipse_245" transform="translate(33.118 27.585)">
                <circle id="Ellipse_1407" cx="4.889" cy="4.889" r="4.889" class="cls-1"/>
            </g>
            <g id="Path_655" transform="translate(24.594 37.989)">
                <path id="Path_2512" d="M-2669.16-8758.407a6.707 6.707 0 0 1-2.547-.507 1.522 1.522 0 0 1-.824-1.986 1.522 1.522 0 0 1 1.984-.824 3.6 3.6 0 0 0 2.779 0 3.588 3.588 0 0 0 1.962-1.967 1.521 1.521 0 0 1 1.985-.822 1.515 1.515 0 0 1 .824 1.98 6.621 6.621 0 0 1-3.605 3.618 6.678 6.678 0 0 1-2.558.508z" class="cls-1" transform="translate(2672.647 8764.633)"/>
            </g>
            <g id="Ellipse_246" class="cls-2" transform="translate(10.249 76.87)">
                <ellipse id="Ellipse_1408" cx="22.37" cy="5.957" class="cls-1" rx="22.37" ry="5.957"/>
            </g>
        </g>
        <g id="Group_3993" transform="translate(223.2 520.186)">
            <g id="Ellipse_239" class="cls-2" transform="translate(10.774 60.793)">
                <ellipse id="Ellipse_1401" cx="17.938" cy="4.776" class="cls-1" rx="17.938" ry="4.776"/>
            </g>
            <g id="Path_656" transform="translate(30.676 49.319)">
                <path id="Path_2513" d="M-2816.325-8739.425c.076.241 0 14.862 0 14.862l1.659 1.549-5.88-.108.15-16.155z" class="cls-5" transform="translate(2820.546 8739.425)"/>
            </g>
            <g id="Path_657" transform="translate(20.575 49.319)">
                <path id="Path_2514" d="M-2835.459-8739.425c-.075.241 0 14.862 0 14.862l-1.658 1.549 5.879-.108-.151-16.155z" class="cls-5" transform="translate(2837.117 8739.425)"/>
            </g>
            <g id="Path_247-3">
                <g id="Path_658">
                    <path id="Path_2515" d="M-2845.387-8818.488a3.686 3.686 0 0 1 5.034-1.354 3.7 3.7 0 0 1 1.352 1.354l12.5 21.641 12.5 21.641a3.686 3.686 0 0 1-1.348 5.035 3.685 3.685 0 0 1-1.845.491h-49.982a3.685 3.685 0 0 1-3.686-3.687 3.679 3.679 0 0 1 .494-1.84l12.5-21.641z" class="cls-6" transform="translate(2870.872 8820.335)"/>
                </g>
            </g>
            <g id="Group_584" transform="translate(19.872 27.247)">
                <g id="Ellipse_247">
                    <circle id="Ellipse_1409" cx="3.92" cy="3.92" r="3.92" class="cls-5"/>
                </g>
                <g id="Ellipse_248" transform="translate(14.714)">
                    <circle id="Ellipse_1410" cx="3.92" cy="3.92" r="3.92" class="cls-5"/>
                </g>
            </g>
            <g id="Path_659" transform="translate(25.973 35.959)">
                <path id="Path_2516" d="M-2823.368-8756.681a5.349 5.349 0 0 1-4.757-2.884 1.217 1.217 0 0 1 .521-1.641 1.219 1.219 0 0 1 1.643.521 2.916 2.916 0 0 0 3.926 1.241 1.219 1.219 0 0 1 1.642.521 1.216 1.216 0 0 1-.521 1.642 5.276 5.276 0 0 1-2.454.6z" class="cls-5" transform="translate(2828.262 8761.343)"/>
            </g>
        </g>
        <g id="Group_3992" transform="translate(86.195 507.689)">
            <g id="Ellipse_249" class="cls-2" transform="translate(14.499 75.787)">
                <ellipse id="Ellipse_1411" cx="22.37" cy="5.957" class="cls-1" rx="22.37" ry="5.957"/>
            </g>
            <g id="Path_671" transform="translate(39.321 61.479)">
                <path id="Path_2528" d="M-2965.263-8733.029c.094.3 0 18.533 0 18.533l2.067 1.934-7.332-.138.188-20.146z" class="cls-5" transform="translate(2970.528 8733.029)"/>
            </g>
            <g id="Path_672" transform="translate(26.721 61.479)">
                <path id="Path_2529" d="M-2985.035-8733.029c-.094.3 0 18.533 0 18.533l-2.067 1.934 7.333-.138-.188-20.146z" class="cls-5" transform="translate(2987.103 8733.029)"/>
            </g>
            <g id="Path_247-6">
                <g id="Path_673">
                    <path id="Path_2530" d="M-2988.221-8811.768a4.6 4.6 0 0 1 6.345-1.427 4.577 4.577 0 0 1 1.613 1.748l14.479 27.6 14.48 27.6a4.6 4.6 0 0 1-1.935 6.206 4.565 4.565 0 0 1-2.322.522l-62.282-2.526a4.6 4.6 0 0 1-4.407-4.778 4.6 4.6 0 0 1 .708-2.274l16.66-26.333z" class="cls-6" transform="translate(3022.255 8813.907)"/>
                </g>
            </g>
            <g id="Ellipse_259" transform="translate(19.669 35.631)">
                <circle id="Ellipse_1421" cx="4.889" cy="4.889" r="4.889" class="cls-5"/>
            </g>
            <g id="Path_674" transform="translate(28.985 46.374)">
                <path id="Path_2531" d="M-2974.349-8751.287a4.889 4.889 0 0 1-4.888 4.894 4.89 4.89 0 0 1-4.89-4.894c0-2.7 2.189-1.2 4.889-1.2s4.889-1.497 4.889 1.2z" class="cls-5" transform="translate(2984.126 8752.9)"/>
            </g>
            <g id="Ellipse_260" transform="translate(38.018 35.631)">
                <circle id="Ellipse_1422" cx="4.889" cy="4.889" r="4.889" class="cls-5"/>
            </g>
        </g>
    </g>
</svg>
